:SAMPLES-PER-SECOND 30
:FULLY-SPECIFIED
:DEGREES
253
root  -19.4734 37.8642 -0.25564 -176.037 19.2417 177.678
RightUpLeg  -21.0158 -15.3524 -17.986
RightLeg  40.164 -8.04514 -7.42702
RightFoot  4.41839 -3.69606 26.5803
RightToes  -5.8209e-011 0 -3.6325e-017
Spine  16.1048 -2.17072 -11.8309
Spine1  11.0203 -7.60901 11.6273
HEad  -16.8192 7.9122 1.3838
LeftShoulder1  0.806354 0.125992 -17.1901
LeftArm  10.9854 10.3292 -58.0815
LeftForeArm  58.9892 -78.7789 -72.6247
LeftHand  -1.99046 -2.1178 30.3894
RightShoulder  0.345016 -1.97357 16.0971
RightArm  -25.1459 -19.1253 56.4197
RightForeArm  -21.7236 61.2611 23.0903
RightHand  -4.67248 8.02858 -39.1938
LeftUpLeg  -13.551 6.65456 9.25469
LeftLeg  34.9289 -5.33495 -3.49649
LeftFoot  -18.8437 -1.07404 -18.0553
LeftToes  -3.91115e-011 -2.2622e-010 9.51032e-012
254
root  -18.3003 37.4127 -0.384713 -176.644 15.3893 178.354
RightUpLeg  -23.2425 -16.6756 -18.8139
RightLeg  48.9323 -5.12585 -6.71206
RightFoot  6.75237 -3.59465 22.5601
RightToes  -5.8209e-011 0 -3.6325e-017
Spine  15.7912 -0.93375 -12.1601
Spine1  10.8958 -6.78725 12.8963
HEad  -16.8595 2.50611 3.32169
LeftShoulder1  0.783963 0.220269 -17.1872
LeftArm  14.311 12.7333 -58.3339
LeftForeArm  65.1252 -79.0674 -80.4463
LeftHand  -1.83743 -1.92249 28.8494
RightShoulder  0.300662 -2.16738 16.102
RightArm  -30.7369 -19.5276 54.001
RightForeArm  -24.605 58.58 20.7461
RightHand  -4.90438 8.19539 -40.5043
LeftUpLeg  -14.4162 4.53591 9.22533
LeftLeg  37.9246 0.280345 0.619901
LeftFoot  -20.8309 -1.08827 -14.5423
LeftToes  -3.91115e-011 -2.2622e-010 9.51032e-012
255
root  -17.1779 36.8671 -0.489789 -177.261 12.031 178.73
RightUpLeg  -24.1376 -17.6327 -21.1378
RightLeg  52.7257 -6.2489 -9.05794
RightFoot  6.15096 -2.91871 19.0612
RightToes  -5.8209e-011 0 -3.6325e-017
Spine  15.6219 0.289839 -12.4258
Spine1  10.7779 -5.92546 14.0603
HEad  -18.2268 -2.45765 5.15032
LeftShoulder1  0.75231 0.337504 -17.0627
LeftArm  17.302 14.5002 -58.1611
LeftForeArm  64.6885 -79.0238 -81.8335
LeftHand  -1.54285 -1.29366 26.6062
RightShoulder  0.269022 -2.29314 15.8353
RightArm  -35.1061 -18.8474 50.3503
RightForeArm  -24.2965 56.6453 19.177
RightHand  -4.82226 8.08207 -40.1796
LeftUpLeg  -14.1075 1.19761 10.7223
LeftLeg  38.724 5.00239 4.66909
LeftFoot  -22.7778 -1.23216 -13.5519
LeftToes  -3.91115e-011 -2.2622e-010 9.51032e-012
256
root  -16.0658 36.4438 -0.579392 -177.698 9.09993 178.786
RightUpLeg  -23.0809 -18.0751 -24.3864
RightLeg  49.5299 -8.84487 -11.2529
RightFoot  4.27242 -2.39812 17.6121
RightToes  -5.8209e-011 0 -3.6325e-017
Spine  15.8293 1.27141 -11.5
Spine1  10.6619 -4.76011 14.118
HEad  -20.6785 -7.05205 7.19131
LeftShoulder1  0.817227 0.0875077 -17.2367
LeftArm  19.3335 15.3373 -57.4405
LeftForeArm  57.1913 -78.7327 -76.34
LeftHand  -1.27206 -0.392763 25.419
RightShoulder  0.260522 -2.28858 14.9789
RightArm  -37.847 -16.5535 45.964
RightForeArm  -23.8825 54.1249 17.4056
RightHand  -4.57498 7.74939 -39.1784
LeftUpLeg  -13.401 -0.609374 13.1999
LeftLeg  37.7683 3.09005 2.97729
LeftFoot  -24.2644 -1.66001 -15.8532
LeftToes  -3.91115e-011 -2.2622e-010 9.51032e-012
257
root  -14.8179 36.2351 -0.638977 -177.629 6.47217 177.934
RightUpLeg  -20.8931 -17.9984 -27.9649
RightLeg  40.4374 -9.57495 -9.00976
RightFoot  4.25375 -2.49233 18.2702
RightToes  -5.8209e-011 0 -3.6325e-017
Spine  16.4749 2.03037 -9.39086
Spine1  9.86893 -2.85295 11.6859
HEad  -23.6954 -11.8445 9.62166
LeftShoulder1  0.932006 -0.382984 -17.3094
LeftArm  20.7664 15.4316 -56.7772
LeftForeArm  50.8701 -78.412 -71.9802
LeftHand  -1.1114 0.425911 25.8107
RightShoulder  0.262373 -2.19846 13.4369
RightArm  -40.1636 -13.0134 41.4493
RightForeArm  -24.728 49.7125 14.9047
RightHand  -4.43871 7.5482 -38.6495
LeftUpLeg  -13.2971 -0.237263 15.1181
LeftLeg  35.8832 -1.07062 -0.444788
LeftFoot  -23.8374 -1.873 -18.292
LeftToes  -3.91115e-011 -2.2622e-010 9.51032e-012
